<svg width="1105" height="1021" viewBox="0 0 1105 1021" fill="none" xmlns="http://www.w3.org/2000/svg">
<rect width="1105" height="1021" rx="128" fill="#131414"/>
<path d="M220.091 697L281.909 324.636H532.818L521.909 389.545H349.727L335.182 478.273H494.455L483.545 543.182H324.273L309.727 632.091H482.636L471.727 697H220.091ZM533.591 697L595.409 324.636H742.318C770.439 324.636 793.591 329.606 811.773 339.545C830.076 349.485 842.924 363.606 850.318 381.909C857.833 400.091 859.591 421.545 855.591 446.273C851.47 471 842.561 492.212 828.864 509.909C815.288 527.606 797.591 541.242 775.773 550.818C754.076 560.273 728.924 565 700.318 565H601.955L612.864 501.727H698.318C713.348 501.727 726.197 499.667 736.864 495.545C747.53 491.424 755.955 485.242 762.136 477C768.439 468.758 772.561 458.515 774.5 446.273C776.561 433.788 775.833 423.364 772.318 415C768.803 406.515 762.439 400.091 753.227 395.727C744.015 391.242 731.894 389 716.864 389H663.773L612.318 697H533.591ZM762.682 527.545L827.227 697H740.318L677.773 527.545H762.682Z" fill="white"/>
</svg>
